<svg xmlns="http://www.w3.org/2000/svg" viewBox="0 0 449.02 464.38"><defs><style>.cls-1{fill:#757575;}.cls-2{fill:#ff6a6a;}</style></defs><title>Asset 1</title><g id="Layer_2" data-name="Layer 2"><g id="Layer_1-2" data-name="Layer 1"><path class="cls-1" d="M192.37,464.16c-58.33,0-116.66-.22-175,.21C7.85,464.45-.26,456.48,0,447c.67-23.48.29-47,.17-70.49a30.12,30.12,0,0,1,5.19-17.38c16.16-24.21,32.2-48.51,48.52-72.62,6.51-9.62,15.33-15.5,27.63-14.88,6.31.32,12.66.08,19,.06,2.28,0,4.15.4,5.43,2.69,3.47,6.25,7.11,12.4,10.75,18.56,1.75,3,1.64,4.56-2.32,5.48-9.11,2.12-17.87,5.31-25.67,10.63-9.93,6.77-9.92,15,0,21.72,11.86,8,25.58,11,39.26,13.85,20.22,4.17,40.72,5.51,61.35,6.39,11.84.51,23.61,0,35.31-.57,25.9-1.22,51.64-4.31,76.14-13.74a53.63,53.63,0,0,0,11.49-6c9.83-6.85,9.76-14.91-.23-21.75-6.81-4.66-14.44-7.54-22.3-9.76a284,284,0,0,0-52.43-9.12c-1.07-.09-2.63.39-2.81-1.25-.11-1,1-1.62,1.88-2.13q12.35-7,24.67-14.13c1.87-1.08,3.87-.87,5.84-.88,17,0,34,0,51,0,12.56,0,21.83,5.75,27.42,16.67,12.46,24.3,24.49,48.82,36.7,73.25a25.47,25.47,0,0,1,2.64,11.55c0,25.17,0,50.33,0,75.49,0,9.19-6.43,15.46-15.78,15.47Z"/><path class="cls-1" d="M408.07,79.78c6.45-.63,11.21,2,14.34,7.31,8,13.59,16.15,27.14,23.75,41,5.64,10.26,2.8,19.12-7.3,25q-65,37.53-130,75-42.94,24.83-85.78,49.83c-3.2,1.87-5.47,2-7.14-1.7-.49-1.05-1.14-2-1.69-3.06-4.38-8.3-4.27-8.12,4.11-12.93,29.39-16.88,58.7-33.92,88.06-50.87q11.88-6.85,23.85-13.55c2.92-1.63,4.08-3.25,2-6.64-6.26-10.38-12.3-20.9-18.27-31.47-2-3.52-3.67-4.41-7.63-2.08C283.8,168.9,261,181.88,238.24,195c-15.69,9.06-31.39,18.09-47,27.3-3.77,2.22-5.64,1.54-7.7-2.37-5.64-10.68-5.67-10.31,4.95-16.34,22.55-12.79,44.91-25.91,67.37-38.87Q293.43,143,331,121.4q33.47-19.32,66.87-38.74C401.14,80.76,404.36,79.26,408.07,79.78Z"/><path class="cls-2" d="M191.19,31.71c-4.65-1.59-9.27-3.33-14-4.74-12.71-3.8-25.25-4.3-37,3.05-10.5,6.58-13.8,17.58-8.94,29a37.4,37.4,0,0,0,8.3,12.34c7.52,7.33,14.48,15.27,22.37,22.15,19.82,17.29,18.2,50.93,4.42,68.39-7.87,10-18.62,15.91-28.86,22.63a63.9,63.9,0,0,0-10.62,8.19c-7,7.15-6.31,15.14-2.17,23.45.9,1.81,3.34,4.1,1.53,5.7s-3.91-1-5.47-2.24c-6.32-4.84-12.92-9.38-17.72-16-9.82-13.5-9.11-25.4,2.53-37.58,5-5.18,9.94-10.35,15.21-15.19,10.36-9.49,7.72-20.33.28-28.55-6.23-6.87-14.45-11.14-21.93-16.38-8.81-6.19-17.72-12-25.07-20.29-12.83-14.42-12.46-40.93-3.4-55.37,10.7-17.06,26-27,46.18-29.67C139.57-2.38,159,5.44,177.11,18,182.38,21.67,187.59,25.57,191.19,31.71Z"/><path class="cls-2" d="M155.68,314.12c-7.39-.13-12.16-3.89-15.44-9.41-7.87-13.29-15.53-26.71-23.11-40.17-5.07-9-1.88-18.72,7.12-23.77,11.59-6.49,23.06-13.21,34.51-20,6-3.54,6.1-3.76,9.72,2.44,11.59,19.78,23,39.67,34.6,59.43,2.19,3.73,1.57,5.72-2.19,7.82-12.33,6.89-24.46,14.11-36.7,21.16A16.08,16.08,0,0,1,155.68,314.12Z"/></g></g></svg>