<svg xmlns="http://www.w3.org/2000/svg" viewBox="0 0 112.78 448.72"><defs><style>.cls-1{fill:#767474;}</style></defs><title>Asset 2</title><g id="Layer_2" data-name="Layer 2"><g id="Layer_1-2" data-name="Layer 1"><path class="cls-1" d="M112.53,275.7c0,46.5-.08,93,.08,139.49,0,8.47-3.53,14.65-9.85,19.69-11.54,9.19-25,12.87-39.46,13.63-15.65.82-31-.53-45.14-8.13-5-2.69-9.7-5.78-13.25-10.41A23.2,23.2,0,0,1,0,415.16q.15-140.49.08-281c0-1.16,0-2.33,0-3.5,0-2,.72-2.83,2.77-1.74,3.82,2,7.71,3.94,11.53,6,2.85,1.51,2.06,4.31,2.06,6.7.05,34.5-.06,69,.08,103.49.05,11.48-.34,23,.39,34.45.38,5.81,3.28,8.78,7.61,11.26,7.11,4.07,15.08,5.34,23,6.06,11,1,22.09.68,32.62-2.91C96.1,288.55,96,286,96,272.57c.2-42.83,0-85.66.12-128.49,0-2.88-1.41-6.6,1.34-8.5,4.06-2.83,8.71-4.83,13.2-7,1.24-.6,1.72.56,1.77,1.65.07,1.5.07,3,.07,4.5Z"/><path class="cls-1" d="M56.42,64.54c-15.67.57-29.94-2.86-42.74-11.73-15.85-11-15.81-30,.09-41C25.22,3.9,37.93.42,51.75.06c13-.34,25.57.71,37.54,6.16C95.74,9.15,101.66,12.85,106,18.5c8.4,11,5.54,25.51-6.51,34C86.48,61.64,71.9,65.22,56.42,64.54Z"/><path class="cls-1" d="M.11,82.7c0-5.33.1-10.66,0-16C0,63.17,1.19,62.48,4,64.49c11.1,7.86,23.58,12.17,36.94,14,23.57,3.16,46,0,66.37-13,1.36-.87,2.74-2.66,4.31-1.85s.83,3,.84,4.6c.07,7.83-.5,15.7.15,23.47,1.12,13.31-5.46,21.76-16.22,27.82-10.47,5.91-21.88,8.6-33.84,9.1C47.12,129.2,32,127.84,18,120.4c-5.56-3-10.93-6.35-14.32-12-2.35-3.92-4-7.94-3.66-12.7C.34,91.37.11,87,.11,82.7Z"/></g></g></svg>